<svg width="120" height="120" viewBox="0 0 120 120" xmlns="http://www.w3.org/2000/svg">
  <defs>
    <linearGradient id="shelf1" x1="0%" y1="0%" x2="100%" y2="100%">
      <stop offset="0%" style="stop-color:#8B4513;stop-opacity:1" />
      <stop offset="100%" style="stop-color:#A0522D;stop-opacity:1" />
    </linearGradient>
    <linearGradient id="book1" x1="0%" y1="0%" x2="100%" y2="100%">
      <stop offset="0%" style="stop-color:#FF6B6B;stop-opacity:1" />
      <stop offset="100%" style="stop-color:#FF4757;stop-opacity:1" />
    </linearGradient>
    <linearGradient id="book2" x1="0%" y1="0%" x2="100%" y2="100%">
      <stop offset="0%" style="stop-color:#4ECDC4;stop-opacity:1" />
      <stop offset="100%" style="stop-color:#26d0ce;stop-opacity:1" />
    </linearGradient>
    <linearGradient id="book3" x1="0%" y1="0%" x2="100%" y2="100%">
      <stop offset="0%" style="stop-color:#667eea;stop-opacity:1" />
      <stop offset="100%" style="stop-color:#764ba2;stop-opacity:1" />
    </linearGradient>
    <linearGradient id="book4" x1="0%" y1="0%" x2="100%" y2="100%">
      <stop offset="0%" style="stop-color:#4CAF50;stop-opacity:1" />
      <stop offset="100%" style="stop-color:#45a049;stop-opacity:1" />
    </linearGradient>
    <linearGradient id="book5" x1="0%" y1="0%" x2="100%" y2="100%">
      <stop offset="0%" style="stop-color:#FFD700;stop-opacity:1" />
      <stop offset="100%" style="stop-color:#FFA500;stop-opacity:1" />
    </linearGradient>
    <linearGradient id="book6" x1="0%" y1="0%" x2="100%" y2="100%">
      <stop offset="0%" style="stop-color:#9C27B0;stop-opacity:1" />
      <stop offset="100%" style="stop-color:#673AB7;stop-opacity:1" />
    </linearGradient>
    <linearGradient id="digitalGlow" x1="0%" y1="0%" x2="100%" y2="100%">
      <stop offset="0%" style="stop-color:#00BCD4;stop-opacity:0.6" />
      <stop offset="100%" style="stop-color:#2196F3;stop-opacity:0.6" />
    </linearGradient>
  </defs>
  
  <!-- Background -->
  <rect x="10" y="10" width="100" height="100" fill="#f8f9fa" rx="8" opacity="0.1"/>
  
  <!-- Top shelf -->
  <rect x="15" y="35" width="90" height="4" fill="url(#shelf1)" rx="2"/>
  <rect x="15" y="35" width="90" height="2" fill="url(#shelf1)" opacity="0.7" rx="1"/>
  
  <!-- Bottom shelf -->
  <rect x="15" y="75" width="90" height="4" fill="url(#shelf1)" rx="2"/>
  <rect x="15" y="75" width="90" height="2" fill="url(#shelf1)" opacity="0.7" rx="1"/>
  
  <!-- Top shelf books -->
  <rect x="20" y="15" width="8" height="20" fill="url(#book1)" rx="1"/>
  <rect x="30" y="18" width="9" height="17" fill="url(#book2)" rx="1"/>
  <rect x="41" y="12" width="7" height="23" fill="url(#book3)" rx="1"/>
  <rect x="50" y="16" width="10" height="19" fill="url(#book4)" rx="1"/>
  <rect x="62" y="14" width="8" height="21" fill="url(#book5)" rx="1"/>
  <rect x="72" y="19" width="9" height="16" fill="url(#book6)" rx="1"/>
  <rect x="83" y="13" width="7" height="22" fill="url(#book1)" rx="1"/>
  <rect x="92" y="17" width="8" height="18" fill="url(#book2)" rx="1"/>
  
  <!-- Bottom shelf books -->
  <rect x="20" y="55" width="9" height="20" fill="url(#book3)" rx="1"/>
  <rect x="31" y="58" width="8" height="17" fill="url(#book4)" rx="1"/>
  <rect x="41" y="52" width="10" height="23" fill="url(#book5)" rx="1"/>
  <rect x="53" y="56" width="7" height="19" fill="url(#book6)" rx="1"/>
  <rect x="62" y="54" width="9" height="21" fill="url(#book1)" rx="1"/>
  <rect x="73" y="59" width="8" height="16" fill="url(#book2)" rx="1"/>
  <rect x="83" y="53" width="7" height="22" fill="url(#book3)" rx="1"/>
  <rect x="92" y="57" width="8" height="18" fill="url(#book4)" rx="1"/>
  
  <!-- Book spine details (lines) -->
  <line x1="22" y1="15" x2="22" y2="35" stroke="white" stroke-width="0.5" opacity="0.4"/>
  <line x1="32" y1="18" x2="32" y2="35" stroke="white" stroke-width="0.5" opacity="0.4"/>
  <line x1="43" y1="12" x2="43" y2="35" stroke="white" stroke-width="0.5" opacity="0.4"/>
  <line x1="55" y1="16" x2="55" y2="35" stroke="white" stroke-width="0.5" opacity="0.4"/>
  
  <line x1="23" y1="55" x2="23" y2="75" stroke="white" stroke-width="0.5" opacity="0.4"/>
  <line x1="35" y1="58" x2="35" y2="75" stroke="white" stroke-width="0.5" opacity="0.4"/>
  <line x1="46" y1="52" x2="46" y2="75" stroke="white" stroke-width="0.5" opacity="0.4"/>
  <line x1="56" y1="56" x2="56" y2="75" stroke="white" stroke-width="0.5" opacity="0.4"/>
  
  <!-- Digital elements (subtle glow effects) -->
  <circle cx="25" cy="45" r="1" fill="url(#digitalGlow)" opacity="0.8"/>
  <circle cx="60" cy="45" r="1.5" fill="url(#digitalGlow)" opacity="0.6"/>
  <circle cx="90" cy="45" r="1" fill="url(#digitalGlow)" opacity="0.4"/>
  <circle cx="40" cy="85" r="1" fill="url(#digitalGlow)" opacity="0.7"/>
  <circle cx="75" cy="85" r="1.2" fill="url(#digitalGlow)" opacity="0.5"/>
  
  <!-- Bookend supports -->
  <rect x="15" y="15" width="3" height="20" fill="url(#shelf1)" rx="1" opacity="0.6"/>
  <rect x="102" y="15" width="3" height="20" fill="url(#shelf1)" rx="1" opacity="0.6"/>
  <rect x="15" y="55" width="3" height="20" fill="url(#shelf1)" rx="1" opacity="0.6"/>
  <rect x="102" y="55" width="3" height="20" fill="url(#shelf1)" rx="1" opacity="0.6"/>
</svg>